<svg xmlns="http://www.w3.org/2000/svg" width="104.909" height="37.316" viewBox="0 0 104.909 37.316"><defs><style>.a{fill:#1a1a1a;}.b{fill:#5565f7;}</style></defs><g transform="translate(18.903 13.544)"><g transform="translate(0 1.895)"><path class="a" d="M737.659,469.568H733.5l4.107-20.306h8.786c3.636,0,5.085,2.473,4.309,6.313-.6,2.967-2.2,5.12-4.546,5.935l1.919,8.058h-4.509l-1.588-7.68h-2.764Zm6.356-11.142a2.039,2.039,0,0,0,2.186-1.891l.353-1.745c.282-1.4-.316-1.891-1.421-1.891h-4.1l-1.118,5.527Z" transform="translate(-733.499 -448.04)"/><path class="a" d="M825.863,483.681c1.089-5.382,3.858-8,8.105-8s5.958,2.618,4.869,8-3.852,7.971-8.1,7.971S824.774,489.063,825.863,483.681Zm8.3,2.124.865-4.276c.353-1.746-.227-2.618-1.71-2.618s-2.417.873-2.77,2.618l-.865,4.276c-.353,1.746.227,2.618,1.71,2.618S833.807,487.55,834.161,485.8Z" transform="translate(-809.226 -469.775)"/><path class="a" d="M905.636,463.9c-2.822,0-3.7-1.251-3.18-3.84l3.578-17.688h4.073l-3.713,18.357h1.716l-.641,3.171Z" transform="translate(-872.386 -442.369)"/><path class="a" d="M942.754,463.9c-2.822,0-3.7-1.251-3.18-3.84l3.578-17.688h4.073l-3.713,18.357h1.717l-.641,3.171Z" transform="translate(-902.922 -442.369)"/><path class="a" d="M976.507,484.414c1.112-5.5,4.044-7.913,7.884-7.913s5.8,2.415,4.683,7.913-4.044,7.913-7.884,7.913S975.395,489.912,976.507,484.414Zm9.037,1.775.718-3.549c.494-2.444-.37-3.636-2.377-3.636s-3.354,1.193-3.848,3.636l-.718,3.549c-.494,2.444.37,3.636,2.377,3.636S985.05,488.632,985.544,486.189Z" transform="translate(-933.171 -470.45)"/><path class="a" d="M1061.38,491.1H1061a4.663,4.663,0,0,1-4.329,2.851c-2.676,0-3.865-1.891-3.147-5.44l2.03-10.036h3L1056.6,488.1c-.436,2.153.178,3.287,1.895,3.287a3.4,3.4,0,0,0,3.369-2.706l2.065-10.211h3l-3.06,15.128h-3Z" transform="translate(-996.621 -472.071)"/><path class="a" d="M1136.448,474.427c-2.094,0-2.814-.9-2.4-2.967l1.959-9.687h-2.094l.5-2.473h1.164c.96,0,1.31-.436,1.5-1.4l.553-2.735h2.705l-.836,4.131h2.822l-.5,2.473h-2.822l-2.06,10.182h2.618l-.5,2.473Z" transform="translate(-1062.93 -452.899)"/></g><g transform="translate(79.722)"><path class="a" d="M1184.662,432.044l-.627,3.136h-.406l.626-3.136h-1.068l.07-.366h2.543l-.069.366Z" transform="translate(-1183.187 -431.678)"/><path class="a" d="M1200.856,432.241h-.025l-.408.587-1.089,1.52-.5-1.52-.185-.582h-.026l-.585,2.933h-.4l.7-3.5h.527l.591,1.9h.015l1.319-1.9h.566l-.7,3.5h-.4Z" transform="translate(-1195.078 -431.678)"/></g></g><path class="b" d="M645.338,401.1a2.919,2.919,0,0,0-2.942-3.553H630.681l2.214-11.058a4.355,4.355,0,0,0-2.852,1.08,4.513,4.513,0,0,0-1.607,2.636l-1.47,7.342a3.059,3.059,0,0,0,.552,2.635,2.923,2.923,0,0,0,2.419,1.08H641.6l-.735,3.671a2.128,2.128,0,0,0-1.382.54,2.257,2.257,0,0,0-.8,1.318l-1.847,9.2a1.53,1.53,0,0,0,.276,1.318,1.415,1.415,0,0,0,1.165.54h3.714Z" transform="translate(-626.871 -380.954)"/><path class="b" d="M692.234,356.366a2.874,2.874,0,0,0-2.376-1.08H672.027a4.355,4.355,0,0,0-2.852,1.08A4.51,4.51,0,0,0,667.568,359l-1.107,5.531a3.007,3.007,0,0,0,.561,2.591,2.923,2.923,0,0,0,2.419,1.08h17.831a4.732,4.732,0,0,0,4.406-3.671L692.786,359A3.057,3.057,0,0,0,692.234,356.366ZM687.8,364.53h-17.64L671.265,359h17.64Z" transform="translate(-659.37 -355.283)"/></svg>